<?xml version="1.0" ?><svg id="Filloutline_expand" style="enable-background:new 0 0 423.507 504.001;" version="1.1" viewBox="0 0 423.507 504.001" xml:space="preserve" xmlns="http://www.w3.org/2000/svg" xmlns:xlink="http://www.w3.org/1999/xlink"><g><g><path d="M375.254,425.82l-68.64-40.42c-42.876-14.505-44.707-31.337-9.03-50.72    c16.54,5.99,31.81,7.62,40.77-0.71c27.56-25.6-11.2-117.94-27.76-130.79c-4.91-3.82-12.12-7.18-20.01-10.05    c-7.183,5.671-13.868,5.872-19.46-5.94c-4.42-1.15-8.65-2.13-12.41-2.95c-8.82-1.92-15.09-9.74-15.09-18.76V154.4l-0.01-0.01    c8.59-6.68,15.46-15.3,19.28-24.19c13.328-11.035,11.62-27.234,3.31-45.7v-9.04c0-20.52-20.31-36.39-42.71-36.39    c-22.39,0-42.7,15.87-42.7,36.39v9.04c-10.093,17.88-12.932,34.046,3.31,45.7c3.82,8.89,10.69,17.51,19.28,24.19l-0.01,0.01v11.08    c0,9.02-6.27,16.84-15.09,18.76c-3.76,0.82-7.99,1.8-12.41,2.95c-4.813,8.798-11.626,9.268-19.36,5.9    c-7.92,2.88-15.17,6.25-20.11,10.09c-16.56,12.85-55.32,105.19-27.76,130.79c8.96,8.33,24.23,6.7,40.77,0.71    c21.403,22.638,15.739,38.981-9.03,50.72l-68.64,40.42l-7.1,41.85c17.152,18.467,80.591,23.873,163.324,23.834L262.124,500    c23.121-5.738,45.265-6.228,66.16,0l54.07-32.33C386.102,452.609,382.866,438.817,375.254,425.82z" style="fill:#FFC05A;"/><rect height="71.689" style="fill:#FFC05A;" transform="matrix(0.9713 -0.238 0.238 0.9713 -15.0673 18.228)" width="114.141" x="10.893" y="35.676"/><path d="M297.584,334.68c-24.8-8.98-52.43-27.77-65.86-37.51c-5.17-3.75-8.23-9.77-8.23-16.16    c0,6.39-3.05,12.41-8.22,16.16c-6.7,4.86-16.94,11.97-28.6,19c-11.7,7.05-24.84,14.01-37.26,18.51c0,19.31-2.53,36.14-9.03,50.72    c6.89,1.53,14.81,3.76,23.35,6.45c7.54,2.38,15.57,5.13,23.78,8.09c7.14,2.58,14.43,5.32,21.68,8.12c4.8,1.86,9.59,3.74,14.3,5.63    h0.01c20.02-8.01,41.32-16.02,59.76-21.84c8.54-2.69,16.46-4.92,23.35-6.45C300.114,370.82,297.584,353.99,297.584,334.68z" style="fill:#D87C0E;"/><path d="M64.644,467.67c-6.55-4.11-10.88-11.28-10.88-19.44c0-10.84,7.65-19.94,17.98-22.41    c0.11,5.51,0.97,11.12,2.74,16.43c1.73,5.23,4.32,10.17,7.93,14.45c2.89,3.42,6.43,6.43,10.69,8.8c-4.18,3.62-9.68,5.82-15.7,5.82    C72.704,471.32,68.324,469.98,64.644,467.67z" style="fill:#D87C0E;"/><path d="M224.694,471.32l7.03,28.68H45.344v-13.71h-8.55c-2.57,0-4.9-1.04-6.58-2.73    c-1.68-1.68-2.72-4.01-2.72-6.58c0-5.14,4.16-9.31,9.3-9.31h27.85c3.68,2.31,8.06,3.65,12.76,3.65c6.02,0,11.52-2.2,15.7-5.82    c6.54,3.64,14.77,5.82,24.96,5.82h81.96H224.694z" style="fill:#EF9D26;"/><path d="M382.354,467.67c-3.68,2.31-8.06,3.65-12.76,3.65c-6.02,0-11.52-2.2-15.7-5.82    c10.8-6.02,16.96-16.04,19.69-26.88c1.05-4.21,1.59-8.54,1.67-12.8c10.33,2.47,17.98,11.57,17.98,22.41    C393.234,456.39,388.904,463.56,382.354,467.67z" style="fill:#D87C0E;"/><path d="M416.784,470.4c1.68,1.68,2.72,4.01,2.72,6.58c0,5.14-4.16,9.31-9.3,9.31h-8.55V500h-73.37    c0-8.75-0.83-17.26-2.47-25.43c-0.21-1.09-0.44-2.17-0.69-3.25h3.81c10.19,0,18.42-2.18,24.96-5.82c4.18,3.62,9.68,5.82,15.7,5.82    c4.7,0,9.08-1.34,12.76-3.65h27.85C412.774,467.67,415.094,468.71,416.784,470.4z" style="fill:#EF9D26;"/><path d="M375.274,424.54c0,0.43,0,0.85-0.02,1.28c-0.08,4.26-0.62,8.59-1.67,12.8h-0.02    c0,0-20.75,7.43-44.62,2.85c-7.94-1.53-14.58-4.63-19.9-8.1c-4.02-6.1-8.65-11.79-13.84-17.02c-6.22,6.26-11.62,13.19-16.16,20.68    c-13.39-5.87-33.7-14.6-55.54-23.34c20.02-8.01,41.32-16.02,59.76-21.84c8.54-2.69,16.46-4.92,23.35-6.45    c5.12-1.14,9.67-1.9,13.49-2.2C361.434,380.02,375.274,402.26,375.274,424.54z" style="fill:#EF9D26;"/><path d="M373.564,438.62h0.02c-2.73,10.84-8.89,20.86-19.69,26.88c-6.54,3.64-14.77,5.82-24.96,5.82h-3.81    c-1.76-7.73-4.24-15.15-7.41-22.18c-2.47-5.51-5.37-10.78-8.67-15.77c5.32,3.47,11.96,6.57,19.9,8.1    C352.814,446.05,373.564,438.62,373.564,438.62z" style="fill:#F9B132;"/><path d="M328.284,500h-66.16c0-8.75,0.83-17.26,2.47-25.43c20.41,4.13,40.81,4.13,61.22,0    C327.454,482.74,328.284,491.25,328.284,500z" style="fill:#D87C0E;"/><path d="M325.124,471.32c0.25,1.08,0.48,2.16,0.69,3.25c-20.41,4.13-40.81,4.13-61.22,0    c0.21-1.09,0.44-2.17,0.69-3.25c1.75-7.73,4.23-15.15,7.4-22.18c15.01,3.54,30.02,3.54,45.03,0    C320.884,456.17,323.364,463.59,325.124,471.32z" style="fill:#E58E1A;"/><path d="M279.044,437.03c-2.36,3.89-4.48,7.93-6.36,12.11c-3.17,7.03-5.65,14.45-7.4,22.18h-40.59    l-15.5-63.26c4.8,1.86,9.59,3.74,14.3,5.63h0.01C245.344,422.43,265.654,431.16,279.044,437.03z" style="fill:#F9B132;"/><path d="M309.044,433.37c3.3,4.99,6.2,10.26,8.67,15.77c-15.01,3.54-30.02,3.54-45.03,0    c1.88-4.18,4-8.22,6.36-12.11c4.54-7.49,9.94-14.42,16.16-20.68C300.394,421.58,305.024,427.27,309.044,433.37z" style="fill:#D87C0E;"/><path d="M209.194,408.06l15.5,63.26h-24.67C196.554,447.47,198.614,424.28,209.194,408.06z" style="fill:#F9B132;"/><path d="M271.124,187.19c6.37,1.65,13.13,3.63,19.46,5.94c-2.92,30.19-11.05,56.54-24.38,79.03    c-6.64-2.96-12.25-6.04-15.22-9.21c-0.44-0.47-0.86-0.99-1.25-1.56C261.024,239.73,268.154,215,271.124,187.19z" style="fill:#D87C0E;"/><path d="M290.584,108.56c0,13.52-8.59,41.87-12.39,53.78c-1.04,3.24-4.06,5.44-7.47,5.44    c-2.17,0-4.12-0.88-5.54-2.3c-1.41-1.42-2.29-3.38-2.29-5.54V130.2c2.13-4.96,3.31-10.01,3.31-14.85V84.5    C278.774,84.5,290.584,91.2,290.584,108.56z" style="fill:#F9B132;"/><path d="M118.064,471.32c-10.19,0-18.42-2.18-24.96-5.82c-4.26-2.37-7.8-5.38-10.69-8.8    c-3.61-4.28-6.2-9.22-7.93-14.45c-1.77-5.31-2.63-10.92-2.74-16.43c-0.02-0.43-0.02-0.85-0.02-1.28    c0-22.28,13.84-44.52,55.17-41.34c3.82,0.29,8.37,1.05,13.49,2.2c6.89,1.53,14.81,3.76,23.35,6.45    c7.54,2.38,15.57,5.13,23.78,8.09c7.14,2.58,14.43,5.32,21.68,8.12c-10.58,16.22-12.64,39.41-9.17,63.26H118.064z" style="fill:#FFC05A;"/><path d="M264.594,474.57c-1.64,8.17-2.47,16.68-2.47,25.43h-30.4l-7.03-28.68h40.59    C265.034,472.4,264.804,473.48,264.594,474.57z" style="fill:#EF9D26;"/><path d="M310.594,203.18c-4.91-3.82-12.12-7.18-20.01-10.05c-2.92,30.19-11.05,56.54-24.38,79.03    c-6.64-2.96-12.25-6.04-15.22-9.21c-0.44-0.47-0.86-0.99-1.25-1.56c11.29-21.66,18.42-46.39,21.39-74.2    c-4.42-1.15-8.65-2.13-12.41-2.95c-8.82-1.92-15.09-9.74-15.09-18.76V154.4l-0.01-0.01c8.59-6.68,15.46-15.3,19.28-24.19    c2.13-4.96,3.31-10.01,3.31-14.85V84.5v-9.04c0-20.52-20.31-36.39-42.71-36.39c-22.39,0-42.7,15.87-42.7,36.39v9.04v30.85    c0,4.84,1.18,9.89,3.31,14.85c3.82,8.89,10.69,17.51,19.28,24.19l-0.01,0.01v11.08c0,9.02-6.27,16.84-15.09,18.76    c-3.76,0.82-7.99,1.8-12.41,2.95c2.97,27.81,10.1,52.54,21.39,74.2c-0.39,0.57-0.81,1.09-1.25,1.56    c-3.6,3.85-11.13,7.58-19.65,11.12l-19.85-80.98c-7.92,2.88-15.17,6.25-20.11,10.09c-16.56,12.85-55.32,105.19-27.76,130.79    c8.96,8.33,24.23,6.7,40.77,0.71c12.42-4.5,25.56-11.46,37.26-18.51c11.66-7.03,21.9-14.14,28.6-19    c5.17-3.75,8.22-9.77,8.22-16.16c0,6.39,3.06,12.41,8.23,16.16c13.43,9.74,41.06,28.53,65.86,37.51    c16.54,5.99,31.81,7.62,40.77-0.71C365.914,308.37,327.154,216.03,310.594,203.18z" style="fill:#FFC05A;"/><path d="M197.264,261.39c-0.39,0.57-0.81,1.09-1.25,1.56c-3.6,3.85-11.13,7.58-19.65,11.12l-19.85-80.98    c6.3-2.29,13.02-4.26,19.36-5.9C178.844,215,185.974,239.73,197.264,261.39z" style="fill:#D87C0E;"/><path d="M184.104,130.2v29.74c0,2.16-0.88,4.12-2.29,5.54c-1.42,1.42-3.38,2.3-5.54,2.3    c-3.41,0-6.43-2.2-7.47-5.44c-3.81-11.91-12.39-40.26-12.39-53.78c0-17.36,11.81-24.06,24.38-24.06v30.85    C180.794,120.19,181.974,125.24,184.104,130.2z" style="fill:#F9B132;"/><path d="M297.584,251.65c0,0,27.82,27.53,23.75,55.13c0,0-3.94-10.02-14.08-17.19    c-2.21-1.56-5.6-3.21-9.67-4.93V251.65z" style="fill:#F9B132;"/><path d="M149.414,251.65v33.01c-4.07,1.72-7.46,3.37-9.67,4.93c-10.15,7.17-14.08,17.19-14.08,17.19    C120.574,285.21,149.414,251.65,149.414,251.65z" style="fill:#F9B132;"/><path d="M203.384,154.39c6.01,4.69,12.86,8.43,20.11,10.64c7.25-2.21,14.11-5.95,20.12-10.64l0.01,0.01    v11.08c0,1.59,0.19,3.13,0.57,4.62c-0.19,0.16-0.39,0.31-0.58,0.46c-6.01,4.69-12.87,8.43-20.12,10.64    c-7.25-2.21-14.1-5.95-20.11-10.64c-0.2-0.15-0.39-0.31-0.58-0.46c0.38-1.49,0.57-3.03,0.57-4.62V154.4L203.384,154.39z" style="fill:#F9B132;"/><path d="M260.424,232.64l1.16,0.37c-3.24,9.98-7.2,19.44-11.85,28.38c-5.39-7.67-7.19-23.61-7.8-33.58    c-0.14-2.44-1.22-4.61-2.88-6.18c-1.66-1.57-3.88-2.52-6.33-2.52c-5.1,0-9.23,4.14-9.23,9.23c0-2.54-1.03-4.85-2.7-6.52    c-1.67-1.68-3.98-2.71-6.52-2.71c-4.89,0-8.92,3.82-9.21,8.7c-0.61,9.97-2.41,25.91-7.8,33.58c-3.78-7.25-7.09-14.84-9.93-22.78    c0,0,1.26-39.65,36.07-31.36C223.404,207.25,251.274,197.81,260.424,232.64z" style="fill:#F9B132;"/></g><path d="M236.473,137.731h-26.494c-2.209,0-4-1.791-4-4s1.791-4,4-4h26.494c2.209,0,4,1.791,4,4   S238.682,137.731,236.473,137.731z M209.696,117.472c0.364-0.535,8.899-13.225,7.757-24.429   c-1.049-10.271-9.872-14.227-14.391-14.884c-2.161-0.311-4.177,1.182-4.511,3.352c-0.335,2.17,1.16,4.207,3.328,4.56   c0.71,0.116,6.954,1.316,7.614,7.784c0.701,6.878-4.393,16.134-6.411,19.116c-1.243,1.827-0.771,4.314,1.057,5.558   c0.688,0.469,1.472,0.693,2.246,0.693C207.665,119.222,208.923,118.609,209.696,117.472z M240.608,119.22   c0.773,0,1.556-0.224,2.244-0.691c1.826-1.24,2.302-3.727,1.064-5.554c-2.021-2.986-7.115-12.242-6.414-19.12   c0.658-6.454,6.877-7.663,7.609-7.784c2.172-0.331,3.672-2.353,3.355-4.529c-0.316-2.186-2.352-3.7-4.533-3.383   c-4.519,0.657-13.342,4.613-14.391,14.884c-1.143,11.204,7.393,23.894,7.757,24.429C238.074,118.608,239.33,119.22,240.608,119.22z    M0.116,51.242c-0.526-2.146,0.787-4.312,2.933-4.837l106.976-26.216l-3.734-15.236c-0.526-2.146,0.787-4.312,2.933-4.837   c2.149-0.524,4.312,0.789,4.837,2.933l45.293,184.82c9.404-3.143,19.439-5.658,28.084-7.539c6.918-1.505,11.938-7.75,11.938-14.85   v-9.234c-4.229-3.498-8.034-7.445-11.268-11.659v15.358c0,6.528-5.311,11.838-11.839,11.838c-5.169,0-9.7-3.306-11.274-8.227   c-4.7-14.698-12.585-41.387-12.585-54.992c0-18.686,11.961-26.507,24.388-27.847V75.46c0-21.894,21.386-40.39,46.7-40.39   s46.701,18.497,46.701,40.39v5.256c12.427,1.34,24.388,9.161,24.388,27.847c0,13.605-7.885,40.294-12.585,54.992   c-1.574,4.921-6.105,8.228-11.274,8.228c-6.528,0-11.839-5.311-11.839-11.838v-15.358c-3.233,4.213-7.038,8.16-11.268,11.659v9.235   c0,7.1,5.021,13.345,11.938,14.85c17.83,3.88,41.583,10.446,53.487,19.69c13.394,10.399,37.169,62.918,38.833,100.468   c0.744,16.814-2.889,29.066-10.799,36.417c-8.318,7.727-21.538,8.833-39.414,3.348c0.451,15.952,2.87,29.297,7.358,40.55   c4.09-0.818,7.688-1.351,10.769-1.589c20.188-1.558,35.727,2.559,46.173,12.23c10.365,9.597,13.008,22.083,13.276,31.422   c10.732,3.898,17.995,13.911,17.995,25.366c0,5.735-1.834,11.056-4.951,15.44h17.912c7.338,0,13.308,5.97,13.308,13.308   s-5.97,13.308-13.308,13.308h-4.545V500c0,2.209-1.791,4-4,4s-4-1.791-4-4v-13.712c0-2.209,1.791-4,4-4h8.545   c2.927,0,5.308-2.381,5.308-5.308s-2.381-5.308-5.308-5.308h-26.783c-4.069,2.312-8.788,3.643-13.821,3.643   c-5.831,0-11.468-1.806-16.152-5.114c-6.403,3.092-14.159,4.956-23.444,5.09c1.507,7.997,2.281,16.263,2.281,24.709   c0,2.209-1.791,4-4,4s-4-1.791-4-4c0-7.075-0.582-14.009-1.709-20.749c-9.091,1.6-18.232,2.402-27.37,2.402   c-9.14,0-18.278-0.802-27.368-2.402c-1.126,6.74-1.709,13.675-1.709,20.749c0,2.209-1.791,4-4,4s-4-1.791-4-4   c0-8.437,0.772-16.695,2.276-24.684h-30.601l5.816,23.732c0.526,2.146-0.787,4.312-2.933,4.837c-0.32,0.078-0.64,0.116-0.955,0.116   c-1.8,0-3.435-1.223-3.882-3.049l-6.283-25.636H118.064c-0.002,0-0.005,0-0.007,0c-0.003,0-0.006-0.001-0.008-0.001   c-9.216-0.002-17.464-1.743-24.494-5.114c-4.685,3.309-10.321,5.114-16.152,5.114c-5.033,0-9.752-1.331-13.821-3.643H36.798   c-2.927,0-5.309,2.381-5.309,5.308s2.382,5.308,5.309,5.308h8.545c2.209,0,4,1.791,4,4V500c0,2.209-1.791,4-4,4s-4-1.791-4-4   v-9.712h-4.545c-7.339,0-13.309-5.97-13.309-13.308s5.97-13.308,13.309-13.308H54.71c-3.117-4.384-4.951-9.704-4.951-15.44   c0-11.455,7.263-21.469,17.995-25.366c0.269-9.339,2.911-21.826,13.276-31.423c10.445-9.671,25.976-13.786,46.172-12.23   c3.072,0.237,6.666,0.769,10.769,1.592c4.488-11.253,6.908-24.598,7.359-40.55c-7.428,2.28-14.054,3.424-19.856,3.424   c-8.162,0-14.697-2.257-19.559-6.775c-7.91-7.351-11.543-19.603-10.799-36.417c1.663-37.55,25.438-90.069,38.832-100.469   c4.547-3.53,10.825-6.669,17.838-9.418l-22.794-93.011L22.016,123.807c-0.314,0.077-0.634,0.115-0.952,0.115   c-0.726,0-1.443-0.197-2.074-0.58c-0.907-0.55-1.559-1.438-1.811-2.468L0.116,51.242z M212.922,293.932   c4.118-2.985,6.576-7.816,6.576-12.922V228.34c0-2.881-2.344-5.225-5.225-5.225c-2.758,0-5.05,2.169-5.217,4.939   c-0.789,13.059-3.186,30.187-10.122,37.62c-6.125,6.563-20.777,12.145-34.948,17.543c-4.637,1.767-9.144,3.484-12.982,5.106   c-0.021,0.009-0.041,0.018-0.061,0.026c-3.803,1.61-6.945,3.125-8.891,4.502c-8.97,6.345-12.63,15.307-12.666,15.397   c-0.818,2.047-3.14,3.052-5.19,2.239c-2.049-0.812-3.058-3.123-2.252-5.174c0.179-0.454,4.495-11.216,15.489-18.993   c2.004-1.417,4.736-2.834,7.983-4.289v-30.379c0-2.209,1.791-4,4-4s4,1.791,4,4v27.061c2.446-0.96,5.034-1.947,7.723-2.971   c3.37-1.284,6.97-2.656,10.514-4.079l-17.941-73.207c-6.387,2.567-11.43,5.221-14.857,7.881   c-10.484,8.141-34.133,58.084-35.746,94.504c-0.636,14.361,2.141,24.522,8.252,30.202c3.451,3.207,8.277,4.638,14.103,4.639   C147.127,335.685,182.642,315.889,212.922,293.932z M145.856,382.596c4.748,1.179,10.01,2.654,15.777,4.421   c4.987-10.875,7.424-23.385,7.424-38.13c0-2.209,1.791-4,4-4s4,1.791,4,4c0,15.522-2.542,28.841-7.741,40.557   c6.046,1.969,12.562,4.21,19.554,6.732c4.824,1.74,9.719,3.557,14.624,5.417l-19.421-79.248   c-6.577,3.82-13.505,7.532-20.434,10.748c-3.552,1.649-6.966,3.097-10.249,4.36C153.157,355.146,150.681,369.991,145.856,382.596z    M75.727,424.536c0,4.972,0.638,9.737,1.854,14.147c5.778,0.792,21.583,2.339,39.721-1.143   c21.932-4.21,33.223-21.511,33.334-21.685c1.189-1.86,3.664-2.404,5.524-1.214c1.861,1.191,2.404,3.665,1.214,5.525   c-0.53,0.83-13.292,20.378-38.564,25.23c-9.297,1.785-17.946,2.344-25.133,2.344c-5.111,0-9.481-0.283-12.82-0.608   c1.308,2.541,2.846,4.89,4.617,6.99c7.341,8.699,18.215,13.133,32.316,13.189c20.254-2.817,39.085-11.529,55.974-25.904   c1.683-1.431,4.207-1.229,5.639,0.453c1.432,1.682,1.229,4.207-0.453,5.639c-9.927,8.45-20.504,15.061-31.629,19.818h48.148   c-2.015-17.218-1.76-39.334,7.877-57.22c-5.763-2.203-11.527-4.353-17.19-6.395c-27.893-10.059-47.935-15.614-59.568-16.51   c-17.874-1.376-31.377,2.028-40.121,10.124C77.591,405.532,75.727,416.653,75.727,424.536z M85.848,465.457   c-2.366-1.821-4.542-3.872-6.486-6.176c-6.207-7.356-10.099-17.077-11.26-27.867c-6.265,3.258-10.343,9.644-10.343,16.82   c0,10.522,8.813,19.083,19.644,19.083C80.354,467.316,83.232,466.668,85.848,465.457z M219.601,467.316l-11.745-47.924   c-5.09,12.728-6.607,29.274-4.318,47.924H219.601z M262.177,467.316c2.566-10.023,6.322-19.552,11.198-28.394   c-14.29-6.233-35.844-15.429-58.461-24.336l12.922,52.73H262.177z M295.201,422.144c-6.642,7.231-12.216,15.343-16.656,24.129   c11.073,2.004,22.237,2.005,33.311,0C307.417,437.487,301.843,429.374,295.201,422.144z M320.989,471.404   c-1.44-6.087-3.345-11.984-5.695-17.644c-6.675,1.345-13.384,2.023-20.094,2.023c-6.71,0-13.419-0.678-20.094-2.023   c-2.35,5.66-4.255,11.557-5.695,17.644C286.544,474.397,303.856,474.397,320.989,471.404z M328.225,467.316h0.71   c20.992,0,32.885-10,38.431-22.837c-5.34,1.21-13.138,2.492-22.224,2.492c-5.295,0-11.023-0.436-16.956-1.574   c-3.098-0.595-6.13-1.451-9.091-2.537C322.976,450.573,326.036,458.764,328.225,467.316z M378.887,431.409   c-1.401,12.639-6.781,25.531-17.74,34.046c2.616,1.212,5.495,1.861,8.448,1.861c10.831,0,19.644-8.561,19.644-19.083   C389.238,441.055,385.156,434.666,378.887,431.409z M234.268,413.726c16.966,6.914,32.346,13.513,43.244,18.273   c4.288-6.639,9.249-12.826,14.851-18.465c0.751-0.755,1.772-1.181,2.838-1.181s2.087,0.425,2.838,1.181   c5.146,5.18,9.745,10.826,13.785,16.855c5.573,3.53,11.579,5.942,17.87,7.15c18.265,3.505,34.832-0.426,40.478-2.05   c0.742-3.61,1.097-7.303,1.097-10.954c0-7.883-1.863-19.004-10.738-27.221c-8.743-8.096-22.25-11.503-40.122-10.124   C305.382,388.349,275.703,397.501,234.268,413.726z M293.607,337.456c-3.283-1.263-6.698-2.715-10.249-4.363   c-21.521-9.987-43.057-24.765-53.98-32.685c-2.337-1.695-4.318-3.785-5.88-6.142c-1.561,2.358-3.542,4.447-5.88,6.142   c-6.096,4.42-15.5,10.977-26.36,17.645l21.328,87.032c3.661,1.423,7.305,2.86,10.909,4.297   c20.996-8.372,39.081-15.03,54.181-19.948c-5.196-11.714-7.737-25.03-7.737-40.548c0-2.209,1.791-4,4-4s4,1.791,4,4   c0,14.738,2.435,27.243,7.417,38.115c5.77-1.769,11.027-3.24,15.779-4.419C296.314,369.981,293.84,355.141,293.607,337.456z    M308.141,206.337c-3.298-2.561-8.092-5.115-14.14-7.592c-3.177,26.788-10.599,50.798-22.102,71.508   c4.614,1.928,9.489,3.786,13.96,5.49c2.689,1.024,5.277,2.011,7.723,2.971v-27.061c0-2.209,1.791-4,4-4s4,1.791,4,4v30.379   c3.248,1.455,5.98,2.872,7.983,4.289c10.994,7.776,15.311,18.539,15.489,18.993c0.807,2.056-0.205,4.378-2.262,5.185   c-0.48,0.188-0.975,0.278-1.461,0.278c-1.597,0-3.105-0.963-3.725-2.539c-0.031-0.078-3.691-9.04-12.661-15.385   c-1.946-1.376-5.088-2.892-8.891-4.502c-0.021-0.008-0.041-0.017-0.061-0.026c-3.838-1.622-8.346-3.34-12.982-5.106   c-14.171-5.398-28.823-10.98-34.948-17.543c-6.937-7.434-9.333-24.561-10.122-37.62c-0.167-2.77-2.459-4.939-5.217-4.939   c-2.882,0-5.226,2.344-5.226,5.225v52.669c0,5.105,2.459,9.937,6.576,12.922c38.423,27.863,85.282,52.241,101.562,37.113   c6.111-5.68,8.888-15.841,8.252-30.203C342.274,264.421,318.625,214.478,308.141,206.337z M264.555,266.982   c11.469-20.427,18.761-44.323,21.713-71.126c-3.602-1.233-7.507-2.44-11.712-3.607c-3.17,25.32-9.907,48.345-20.049,68.557   C256.668,262.829,260.268,264.918,264.555,266.982z M270.199,88.78v26.569c0,5.096-1.187,10.362-3.311,15.533v29.062   c0,2.117,1.722,3.838,3.839,3.838c1.676,0,3.146-1.071,3.655-2.665c3.669-11.475,12.204-39.568,12.204-52.555   C286.587,93.736,277.028,89.741,270.199,88.78z M180.108,130.882c-2.123-5.171-3.311-10.438-3.311-15.534V88.78   c-6.829,0.961-16.388,4.956-16.388,19.783c0,12.987,8.535,41.08,12.204,52.555c0.51,1.593,1.979,2.664,3.655,2.664   c2.117,0,3.839-1.722,3.839-3.838V130.882z M223.498,160.834c20.75-6.904,38.701-27.876,38.701-45.485V75.46   c0-17.557-17.723-32.39-38.701-32.39c-20.978,0-38.7,14.833-38.7,32.39v39.889C184.798,132.957,202.749,153.93,223.498,160.834z    M180.256,190.205c2.745,22.715,8.426,43.497,16.933,61.936c1.915-5.986,3.269-14.415,3.882-24.569   c0.423-6.985,6.222-12.457,13.203-12.457c3.585,0,6.841,1.434,9.225,3.757c2.385-2.324,5.641-3.757,9.226-3.757   c6.981,0,12.78,5.472,13.203,12.457c0.613,10.154,1.967,18.583,3.882,24.569c8.507-18.439,14.188-39.221,16.933-61.936   c-2.857-0.704-5.818-1.392-8.883-2.059c-10.567-2.3-18.237-11.833-18.237-22.667v-3.484c-4.709,2.916-9.744,5.271-14.954,6.863   c-0.381,0.117-0.775,0.175-1.169,0.175s-0.788-0.058-1.169-0.175c-5.21-1.592-10.245-3.947-14.953-6.862v3.484   c0,10.834-7.67,20.368-18.237,22.667C186.074,188.813,183.112,189.501,180.256,190.205z M161.265,195.668l17.853,72.851   c5.725-2.554,10.671-5.186,13.372-7.713c-10.142-20.213-16.88-43.238-20.049-68.558C168.448,193.357,164.716,194.5,161.265,195.668   z M8.838,53.223l15.159,61.862L127.089,89.82l-15.16-61.861L8.838,53.223z" style="fill:#3A322B;"/></g></svg>